<?xml version="1.0" encoding="iso-8859-1"?>
<!-- Uploaded to: SVG Repo, www.svgrepo.com, Generator: SVG Repo Mixer Tools -->
<svg height="800px" width="800px" version="1.1" id="Layer_1" xmlns="http://www.w3.org/2000/svg" xmlns:xlink="http://www.w3.org/1999/xlink" 
	 viewBox="0 0 512 512" xml:space="preserve">
<path style="fill:#17778D;" d="M337.597,371.664l-5.542-32.928c20.986-3.533,40.529-14.175,55.027-29.966
	c14.635-15.943,22.696-35.871,22.696-56.114v-4.069c0-18.381-14.954-33.333-33.333-33.333c-18.647,0-33.818,14.554-33.818,32.443
	h-33.391c0-36.301,30.149-65.834,67.208-65.834c36.793,0,66.726,29.933,66.726,66.725v4.069
	C443.17,310.371,397.784,361.533,337.597,371.664z"/>
<circle style="fill:#9FD3DC;" cx="234.33" cy="25.244" r="25.244"/>
<path style="fill:#70C9D8;" d="M368.508,512l-32.411-381.611c-7.82-50.153-51.013-87.132-101.771-87.132l0,0
	c-50.759,0-93.951,36.979-101.771,87.132H68.831l31.101,97.802h24.316L100.143,512H368.508z"/>
<g>
	<path style="fill:#53B8DA;" d="M368.508,512l-32.411-381.611c-7.82-50.153-51.013-87.132-101.771-87.132l0,0
		c0,43.566,0,468.744,0,468.744H368.508z"/>
	<path style="fill:#53B8DA;" d="M234.326,43.256L234.326,43.256c-50.759,0-93.951,36.979-101.772,87.132h203.543
		C328.277,80.236,285.086,43.256,234.326,43.256z"/>
</g>
<path style="fill:#17778D;" d="M234.326,43.256L234.326,43.256c0,25.752,0,87.132,0,87.132h101.771
	C328.277,80.236,285.086,43.256,234.326,43.256z"/>
</svg>